<svg width="168" height="57" viewBox="0 0 168 57" fill="none" xmlns="http://www.w3.org/2000/svg">
<g clip-path="url(#clip0_209_79)">
<path d="M39.0764 30.2876C39.0071 23.0749 45.0172 19.6095 45.2876 19.4445C41.9047 14.5421 36.6501 13.8683 34.7785 13.7926C30.3072 13.3388 26.0509 16.4054 23.7772 16.4054C21.5034 16.4054 18.0027 13.8545 14.294 13.9302C9.41383 13.9989 4.91488 16.7423 2.39852 21.0741C-2.66193 29.7788 1.10914 42.7052 6.05175 49.7803C8.47106 53.2388 11.341 57.1374 15.1259 56.993C18.7722 56.8486 20.1448 54.6553 24.5397 54.6553C28.9347 54.6553 30.1755 56.993 34.0229 56.9242C37.9395 56.8486 40.4212 53.3901 42.8197 49.9179C45.5787 45.8955 46.7225 42.0107 46.7918 41.8045C46.7017 41.7701 39.1596 38.9029 39.0764 30.2876Z" fill="black"/>
<path d="M31.8462 9.1035C33.8565 6.69011 35.2082 3.34162 34.8408 0C31.9501 0.116888 28.4494 1.91146 26.3767 4.32485C24.5189 6.45633 22.8899 9.86671 23.3335 13.1396C26.5431 13.3871 29.8428 11.51 31.8462 9.1035ZM64.4271 37.3766L61.0997 47.3808H56.8226L67.713 15.5873H72.7041L83.6361 47.3808H79.2134L75.7889 37.3766H64.4271ZM74.9362 34.1656L71.8029 25.014C71.0889 22.9375 70.6175 21.0536 70.1392 19.2109H70.0491C69.5708 21.0948 69.0509 23.0269 68.4339 24.9659L65.3006 34.1587L74.9362 34.1656ZM86.8803 31.9998C86.8803 29.0776 86.7902 26.7123 86.6862 24.5464H90.4434L90.6375 28.4656H90.7276C92.4399 25.6809 95.1503 24.0308 98.9075 24.0308C104.474 24.0308 108.654 28.6994 108.654 35.637C108.654 43.8467 103.614 47.8965 98.1935 47.8965C95.1503 47.8965 92.4884 46.5764 91.1089 44.3142H91.0188V56.7181H86.8803V31.9998ZM91.0118 38.0848C91.0118 38.7036 91.1019 39.2606 91.2059 39.7831C91.9685 42.6572 94.4848 44.6443 97.4864 44.6443C101.909 44.6443 104.481 41.062 104.481 35.8227C104.481 31.2434 102.055 27.338 97.632 27.338C94.7829 27.338 92.121 29.3663 91.303 32.4811C91.1574 32.9967 91.0188 33.6156 91.0188 34.1794L91.0118 38.0848ZM112.98 31.9998C112.98 29.0776 112.89 26.7123 112.786 24.5464H116.543L116.737 28.4656H116.827C118.539 25.6809 121.25 24.0308 125.007 24.0308C130.573 24.0308 134.754 28.6994 134.754 35.637C134.754 43.8467 129.714 47.8965 124.293 47.8965C121.25 47.8965 118.588 46.5764 117.208 44.3142H117.118V56.7181H112.98V31.9998ZM117.118 38.0848C117.118 38.7036 117.208 39.2606 117.312 39.7831C118.075 42.6572 120.591 44.6443 123.593 44.6443C128.016 44.6443 130.587 41.062 130.587 35.8227C130.587 31.2434 128.161 27.338 123.738 27.338C120.889 27.338 118.227 29.3663 117.409 32.4811C117.264 32.9967 117.125 33.6156 117.125 34.1794L117.118 38.0848ZM139.086 13.889H143.273V47.3739H139.086V13.889ZM151.689 36.7165C151.779 42.3271 155.397 44.6443 159.577 44.6443C162.572 44.6443 164.381 44.1286 165.948 43.4685L166.662 46.4388C165.192 47.0989 162.669 47.8552 159.009 47.8552C151.924 47.8552 147.689 43.2347 147.689 36.3452C147.689 29.4557 151.779 24.0308 158.482 24.0308C165.997 24.0308 167.993 30.5834 167.993 34.7844C167.993 35.637 167.903 36.2902 167.847 36.7165H151.689ZM163.959 33.7462C164.007 31.1059 162.863 27.0011 158.156 27.0011C153.921 27.0011 152.07 30.8721 151.737 33.7462H163.959Z" fill="black"/>
</g>
<defs>
<clipPath id="clip0_209_79">
<rect width="168" height="57" fill="white"/>
</clipPath>
</defs>
</svg>
