<svg width="100" height="57" viewBox="0 0 100 57" fill="none" xmlns="http://www.w3.org/2000/svg">
<g clip-path="url(#clip0_207_76)">
<path fill-rule="evenodd" clip-rule="evenodd" d="M17.895 20.2311C17.878 21.9421 17.572 23.7021 16.695 25.1931C16.09 26.2191 15.117 27.0781 13.933 27.3371C12.805 27.5711 11.567 27.3971 10.605 26.7401C9.58799 26.0621 8.92299 24.9701 8.52999 23.8321C7.95199 22.1951 7.88099 20.4281 8.00499 18.7121C8.16199 17.1441 8.56799 15.5361 9.54099 14.2641C9.88111 13.8112 10.3094 13.4319 10.8001 13.149C11.2908 12.8661 11.8336 12.6855 12.396 12.6181C13.366 12.4941 14.392 12.6721 15.216 13.2161C16.114 13.7991 16.736 14.7241 17.136 15.7031C17.722 17.1331 17.919 18.6931 17.895 20.2311ZM25.595 16.9511C25.97 18.9311 25.931 20.9811 25.56 22.9611C25.174 24.9651 24.344 26.9051 23.038 28.4851C21.595 30.2581 19.598 31.5401 17.43 32.2411C15.45 32.8951 13.33 33.0741 11.26 32.8841C8.78699 32.6541 6.34499 31.7771 4.40099 30.2141C2.47099 28.6771 1.10399 26.4871 0.477994 24.1081C0.202359 23.0781 0.0427009 22.0206 0.0019937 20.9551C-6.30436e-06 13.9701 0.0019937 6.98511 0.0019937 0.00111263H7.96199C7.96199 2.65811 7.95999 5.31511 7.96199 7.97211C10.5184 7.10837 13.2501 6.89697 15.909 7.35711C18.303 7.78111 20.607 8.87511 22.327 10.6121C24.053 12.3101 25.157 14.5841 25.595 16.9511ZM51.856 0.00011263C54.419 -0.00288737 56.981 0.00011263 59.543 0.00011263C59.551 5.92311 59.535 11.8481 59.553 17.7731C59.693 17.6831 59.775 17.5331 59.865 17.3951C62 14.1551 64.15 10.9231 66.279 7.67711C69.613 7.66511 72.947 7.67211 76.281 7.67411C73.042 11.5461 69.793 15.4091 66.552 19.2771C66.482 19.3441 66.437 19.4451 66.53 19.5141C70.133 23.7961 73.762 28.0571 77.36 32.3421C74.099 32.3481 70.837 32.3431 67.574 32.3451C67.5319 32.3527 67.4884 32.3474 67.4494 32.3299C67.4103 32.3124 67.3774 32.2836 67.355 32.2471C64.753 28.4671 62.165 24.6781 59.55 20.9071C59.531 24.7131 59.56 28.5191 59.535 32.3241C58.46 32.3741 57.371 32.3311 56.29 32.3451H51.858C51.854 21.5631 51.858 10.7821 51.856 0.00011263ZM50.242 22.5041C44.93 22.5041 39.618 22.4971 34.307 22.5071C34.405 23.6271 34.921 24.7071 35.773 25.4471C37.041 26.5801 38.763 27.0221 40.419 27.1581C43.0259 27.2866 45.6351 26.9549 48.127 26.1781C48.461 27.9151 48.809 29.6481 49.138 31.3851C46.223 32.5481 43.055 32.9031 39.938 32.9031C38.06 32.8631 36.168 32.6161 34.399 31.9581C33.124 31.4921 31.919 30.8181 30.887 29.9301C29.7588 28.9614 28.8493 27.7639 28.219 26.4171C27.339 24.5441 26.97 22.4571 26.979 20.3951C26.9564 18.3541 27.3547 16.3304 28.149 14.4501C29.026 12.3781 30.437 10.5071 32.299 9.22211C34.026 8.01011 36.101 7.34211 38.197 7.17511C39.927 7.02611 41.699 7.16311 43.358 7.70011C44.73 8.15411 46.013 8.90311 47.039 9.92611C48.01 10.8691 48.757 12.0281 49.297 13.2671C50.533 16.1601 50.741 19.4211 50.242 22.5041ZM34.272 17.2271L43.362 17.2281C43.352 15.9031 43.003 14.5101 42.108 13.4981C41.374 12.6581 40.245 12.2411 39.145 12.2401C38.056 12.1951 36.94 12.5511 36.127 13.2901C35.013 14.2851 34.419 15.7611 34.272 17.2271ZM99.916 18.1521C100.223 21.3191 99.714 24.6691 97.982 27.3871C96.515 29.7171 94.159 31.4251 91.545 32.2511C89.583 32.8951 87.486 33.0671 85.434 32.8871C83.305 32.6881 81.201 32.0211 79.411 30.8381C77.6892 29.705 76.311 28.1216 75.426 26.2601C74.118 23.5041 73.873 20.3261 74.389 17.3441C74.812 14.8951 75.907 12.5241 77.684 10.7621C79.284 9.12611 81.401 8.04811 83.62 7.53411C84.444 7.33511 85.288 7.22911 86.133 7.15811C88.21 7.02111 90.332 7.23511 92.292 7.96211C94.711 8.83511 96.829 10.5331 98.155 12.7431C99.149 14.3791 99.73 16.2511 99.915 18.1531L99.916 18.1521ZM91.968 21.5941C92.164 19.7121 92.043 17.7641 91.396 15.9741C91.006 14.9241 90.391 13.9091 89.45 13.2681C88.622 12.6911 87.573 12.4921 86.582 12.6131C85.6945 12.709 84.8617 13.0892 84.208 13.6971C83.357 14.4871 82.843 15.5701 82.529 16.6721C82.116 18.1121 82.053 19.6261 82.139 21.1121C82.237 22.3371 82.491 23.5631 83.03 24.6731C83.481 25.5981 84.168 26.4401 85.084 26.9361C85.941 27.4111 86.964 27.5211 87.923 27.3701C88.988 27.1801 89.923 26.5081 90.547 25.6371C91.401 24.4631 91.794 23.0191 91.968 21.5941ZM22.813 45.8801C47.531 42.4021 72.252 38.9421 96.971 35.4571C96.989 38.0471 96.981 40.6371 96.974 43.2251C89.922 44.1971 82.875 45.2021 75.824 46.1851C50.551 49.7281 25.278 53.2851 0.0039937 56.8201C0.0019937 54.2371 -0.0060063 51.6551 0.0069937 49.0721C7.61099 48.0261 15.21 46.9391 22.813 45.8801Z" fill="#0089CF"/>
</g>
<defs>
<clipPath id="clip0_207_76">
<rect width="100" height="57" fill="white"/>
</clipPath>
</defs>
</svg>
