<svg width="171" height="38" viewBox="0 0 171 38" fill="none" xmlns="http://www.w3.org/2000/svg">
<g clip-path="url(#clip0_207_64)">
<path fill-rule="evenodd" clip-rule="evenodd" d="M73.139 18.3654C74.1723 17.9688 75.0588 17.2686 75.6799 16.3584C76.301 15.4483 76.627 14.3717 76.6143 13.2727C76.6143 8.68916 73.3365 6.41699 68.8344 6.41699H57.0263V31.3403H69.8612C73.8104 31.3403 77.6806 28.598 77.6806 24.4063C77.6806 19.4232 73.139 18.4125 73.139 18.3654ZM63.1871 11.5881H67.7681C68.0615 11.5701 68.3555 11.6096 68.6334 11.7044C68.9114 11.7993 69.1677 11.9475 69.3878 12.1408C69.6079 12.334 69.7874 12.5683 69.9161 12.8305C70.0447 13.0926 70.12 13.3773 70.1376 13.6683C70.1376 13.7571 70.1376 13.8472 70.1376 13.9386C70.1252 14.5514 69.8692 15.1344 69.4254 15.5607C68.9815 15.987 68.3859 16.2221 67.7681 16.2147H63.1476L63.1871 11.5881ZM67.8076 26.1221H63.2266V21.2252H67.6891C69.9402 21.2252 71.0065 22.2046 71.0065 23.6541C71.0065 25.464 69.6637 26.1221 67.8076 26.1221Z" fill="#ED0007"/>
<path fill-rule="evenodd" clip-rule="evenodd" d="M91.2658 5.79004C83.9993 5.79004 79.7342 11.5488 79.7342 18.8354C79.7342 26.122 83.9993 31.8808 91.2658 31.8808C98.5323 31.8808 102.797 26.1612 102.797 18.8354C102.797 11.5096 98.5718 5.79004 91.2658 5.79004ZM91.2658 25.9261C87.7115 25.9261 85.9344 22.7529 85.9344 18.8354C85.9344 14.9179 87.7115 11.7839 91.2658 11.7839C94.8201 11.7839 96.6367 14.9571 96.6367 18.8354C96.6367 22.7921 94.8201 25.9261 91.2658 25.9261Z" fill="#ED0007"/>
<path fill-rule="evenodd" clip-rule="evenodd" d="M116.185 16.2108L115.316 16.0149C113.184 15.584 111.486 15.0355 111.486 13.5077C111.486 11.8623 113.105 11.1963 114.527 11.1963C115.497 11.2107 116.453 11.4233 117.336 11.821C118.22 12.2187 119.011 12.7929 119.661 13.5077L123.57 9.6685C121.793 7.67056 118.91 5.75098 114.408 5.75098C109.116 5.75098 105.088 8.68912 105.088 13.586C105.088 18.052 108.326 20.2458 112.276 21.0685L113.144 21.2644C116.422 21.9304 117.646 22.4396 117.646 24.0066C117.646 25.4953 116.304 26.4747 114.25 26.4747C111.802 26.4747 109.59 25.417 107.892 23.2623L103.903 27.1798C106.115 29.8046 108.919 31.8417 114.329 31.8417C119.029 31.8417 124.044 29.1778 124.044 23.7324C124.123 18.052 119.779 16.9551 116.185 16.2108Z" fill="#ED0007"/>
<path fill-rule="evenodd" clip-rule="evenodd" d="M138.103 25.9263C135.339 25.9263 132.456 23.6541 132.456 18.6788C132.456 14.252 135.141 11.784 137.945 11.784C140.157 11.784 141.46 12.8025 142.487 14.5654L147.542 11.2355C145.014 7.43553 142.013 5.82935 137.866 5.82935C130.284 5.82935 126.177 11.6665 126.177 18.718C126.177 26.1221 130.718 31.9201 137.787 31.9201C142.763 31.9201 145.133 30.1964 147.7 26.5139L142.605 23.1135C141.579 24.751 140.473 25.9263 138.103 25.9263Z" fill="#ED0007"/>
<path fill-rule="evenodd" clip-rule="evenodd" d="M164.405 6.41699V15.584H156.783V6.41699H150.188V31.3325H156.783V21.4995H164.405V31.3325H171V6.41699H164.405Z" fill="#ED0007"/>
<path d="M19.0351 0.0705566C15.2703 0.0705566 11.5901 1.17799 8.45977 3.25283C5.32946 5.32766 2.88968 8.2767 1.44896 11.727C0.00823997 15.1773 -0.368719 18.974 0.365755 22.6368C1.10023 26.2997 2.91315 29.6642 5.57525 32.305C8.23736 34.9457 11.6291 36.7441 15.3215 37.4727C19.014 38.2013 22.8413 37.8273 26.3195 36.3982C29.7977 34.969 32.7706 32.5488 34.8622 29.4436C36.9538 26.3384 38.0702 22.6876 38.0702 18.953C38.0702 13.9451 36.0647 9.14226 32.495 5.6011C28.9252 2.05995 24.0835 0.0705566 19.0351 0.0705566ZM19.0351 36.0726C15.6218 36.0726 12.2851 35.0686 9.44709 33.1874C6.60903 31.3063 4.39704 28.6326 3.09082 25.5044C1.78461 22.3762 1.44284 18.934 2.10874 15.6132C2.77465 12.2923 4.41831 9.24187 6.83188 6.84765C9.24545 4.45344 12.3205 2.82295 15.6682 2.16239C19.016 1.50183 22.486 1.84085 25.6394 3.13659C28.7929 4.43234 31.4883 6.6266 33.3846 9.4419C35.2809 12.2572 36.2931 15.5671 36.2931 18.953C36.292 23.4931 34.4734 27.8469 31.2372 31.0573C28.0009 34.2676 23.6119 36.0716 19.0351 36.0726Z" fill="black"/>
<path d="M26.894 7.16138H25.5908V13.6253H12.5189V7.16138H11.1762C9.20955 8.4484 7.59552 10.1994 6.47878 12.2573C5.36203 14.3153 4.77747 16.6159 4.77747 18.9531C4.77747 21.2903 5.36203 23.591 6.47878 25.6489C7.59552 27.7069 9.20955 29.4579 11.1762 30.7449H12.5189V24.2888H25.5908V30.7527H26.894C28.8615 29.4663 30.4764 27.7156 31.5937 25.6575C32.7111 23.5995 33.296 21.2985 33.296 18.961C33.296 16.6234 32.7111 14.3224 31.5937 12.2644C30.4764 10.2064 28.8615 8.45561 26.894 7.16921V7.16138ZM10.7023 28.2063C9.47752 27.1268 8.47909 25.8185 7.76403 24.3562C7.04898 22.8938 6.6313 21.3061 6.53485 19.6836C6.4384 18.0612 6.66507 16.4358 7.20192 14.9002C7.73876 13.3646 8.57527 11.949 9.66367 10.7342C9.98989 10.3727 10.3367 10.03 10.7023 9.70777V28.2063ZM25.5908 22.4867H12.5189V15.3882H25.5908V22.4867ZM27.3679 28.1672V24.2496V13.6253V9.70777C28.5897 10.7961 29.5833 12.1125 30.292 13.5819C31.0007 15.0513 31.4106 16.6448 31.4983 18.2714C31.5859 19.898 31.3496 21.5258 30.8029 23.0617C30.2561 24.5977 29.4096 26.0117 28.3118 27.223C28.0131 27.5506 27.6981 27.8631 27.3679 28.1593V28.1672Z" fill="black"/>
</g>
<defs>
<clipPath id="clip0_207_64">
<rect width="171" height="38" fill="white"/>
</clipPath>
</defs>
</svg>
