<svg width="113" height="33" viewBox="0 0 113 33" fill="none" xmlns="http://www.w3.org/2000/svg">
<g clip-path="url(#clip0_207_59)">
<path fill-rule="evenodd" clip-rule="evenodd" d="M88.6578 1.70874H89.9159H92.6688V5.57645H91.4114H88.6578V1.70874ZM86.8599 30.6753V27.4547C88.5623 27.4547 88.6578 26.839 88.6578 25.3087V7.65974H92.8441V23.5876V23.6184V26.318C92.8441 27.0605 92.7644 27.7705 92.6214 28.4176C92.2872 29.838 90.4406 30.6114 89.1514 30.659C88.8654 30.6753 86.8921 30.6433 86.8599 30.6753ZM80.4617 14.416C80.4617 12.7113 79.3314 10.8483 77.3904 10.8483C74.828 10.8483 73.9205 12.7903 73.9205 15.1579V24.219L69.6867 24.1871V8.35456V8.33886V7.97546H73.6813V9.90118C75.1932 7.86499 76.0526 7.37542 78.8701 7.37542C80.1909 7.37542 81.3369 7.81731 82.5147 8.52782C84.5999 9.77501 84.4569 12.5531 84.4569 14.6527V24.1876H80.4623V14.416H80.4617ZM62.1906 14.3684C62.1273 13.4055 61.84 12.6002 61.3628 11.9693C60.8856 11.3385 60.0737 10.9594 58.9118 10.8483C57.7979 10.9588 57.0018 11.3379 56.5246 11.985C56.031 12.6165 55.7285 13.4218 55.6013 14.3684H62.1906ZM106.977 14.3684C106.914 13.4055 106.626 12.6002 106.149 11.9693C105.672 11.3385 104.861 10.9594 103.698 10.8483C102.6 10.9588 101.805 11.3379 101.311 11.985C100.817 12.6165 100.516 13.4218 100.388 14.3684H106.977ZM66.3288 19.4838C64.7372 24.408 62.0634 24.6929 58.7687 24.7086C56.3177 24.7086 54.1052 23.6661 52.9117 22.0718C51.7181 20.4775 51.1131 18.489 51.0656 16.1365C51.0656 16.1045 51.0656 16.0574 51.0656 16.0103C51.0656 15.9475 51.0656 15.8999 51.0656 15.8685C51.0656 14.4794 51.2884 13.1375 51.7498 11.8432C52.1953 10.5646 53.0072 9.47557 54.1533 8.60748C54.7102 8.16559 55.3152 7.86557 55.9994 7.66032C56.6841 7.47077 57.3682 7.376 58.0682 7.376H59.2776C59.6915 7.376 60.0895 7.4074 60.487 7.47077C60.9009 7.53357 61.2825 7.61264 61.6805 7.70742C62.7633 7.99174 63.7177 8.5755 64.5138 9.45987C65.3257 10.3437 65.8979 11.3222 66.2162 12.4275C66.3276 12.9485 66.4238 13.4538 66.4712 13.9427C66.5187 14.448 66.551 14.9533 66.551 15.458C66.551 15.6632 66.551 15.8842 66.551 16.0894C66.551 16.3104 66.5351 16.9418 66.5187 17.1784H55.5057C55.4741 19.5146 56.8424 21.3781 58.8162 21.4404C60.7262 21.488 61.6336 20.8409 62.2861 19.4838H66.3288ZM111.131 19.4838C109.524 24.408 106.85 24.6929 103.555 24.7086C101.104 24.7086 98.8759 23.6661 97.6817 22.0718C96.4876 20.4775 95.8837 18.489 95.8363 16.1365C95.8363 16.1045 95.8363 16.0574 95.8363 16.0103C95.8363 15.9475 95.8363 15.8999 95.8363 15.8685C95.8363 14.4794 96.059 13.1375 96.5204 11.8432C96.9818 10.5646 97.7779 9.47557 98.9239 8.60748C99.4973 8.16559 100.118 7.86557 100.786 7.66032C101.471 7.47077 102.155 7.376 102.855 7.376H104.08C104.479 7.376 104.876 7.4074 105.29 7.47077C105.688 7.53357 106.085 7.61264 106.468 7.70742C107.55 7.99174 108.505 8.5755 109.317 9.45987C110.112 10.3437 110.686 11.3222 111.004 12.4275C111.131 12.9485 111.211 13.4538 111.258 13.9427C111.322 14.448 111.338 14.9533 111.338 15.458C111.338 15.6632 111.338 15.8842 111.338 16.0894C111.338 16.3104 111.323 16.9418 111.306 17.1784H100.293C100.261 19.5146 101.629 21.3781 103.619 21.4404C105.513 21.488 106.42 20.8409 107.073 19.4838H111.131ZM40.4501 7.81789H44.5244V10.4221C45.3047 9.61685 46.116 7.24925 49.9518 7.3917V11.685C48.9335 11.685 47.0235 11.6693 45.8616 12.7113C45.0339 13.4532 44.6364 14.5736 44.62 16.1045L44.5877 24.2813H40.4501C40.4501 18.9309 40.4501 13.1845 40.4501 7.81789ZM24.8522 16.1214C24.8522 17.4319 25.1547 18.5675 25.7913 19.5623C26.4122 20.5572 27.5102 21.1409 29.086 21.2671C30.6459 21.1409 31.7281 20.5572 32.3325 19.5466C32.9533 18.521 33.2558 17.4005 33.2558 16.1214C33.2558 16.058 33.2558 15.9952 33.2558 15.9156C33.2558 15.8528 33.2558 15.7737 33.2558 15.6789C33.2078 14.637 32.9053 13.6584 32.3642 12.7589C31.8389 11.8432 30.8998 11.2751 29.5467 11.0385C29.4828 11.0385 29.4195 11.0385 29.372 11.0385C29.324 11.0228 29.2607 11.0071 29.2132 10.9914C29.1499 10.9914 29.086 10.9914 29.0379 10.9757C28.9898 10.9757 28.9265 10.9757 28.879 10.9757C27.4621 11.0861 26.4438 11.6391 25.8072 12.6333C25.1705 13.6276 24.8522 14.7951 24.8522 16.1214ZM20.8576 16.2633C20.8576 13.6904 21.5101 11.6379 22.8309 10.075C24.1522 8.51213 25.9983 7.72312 28.3538 7.72312H29.5632C29.8657 7.70742 30.184 7.70742 30.5023 7.73882C30.8365 7.77021 31.1548 7.81789 31.4731 7.88069C33.4944 8.2121 34.9583 9.20694 35.8822 10.8169C36.8049 12.4269 37.2827 14.1794 37.3143 16.0417C37.3143 16.0888 37.3143 16.1208 37.3143 16.1522C37.3143 16.1836 37.3143 16.215 37.3143 16.2627C37.2985 18.678 36.6777 20.6984 35.436 22.2927C34.1944 23.887 32.2686 24.6923 29.6904 24.6923L28.481 24.7232C25.9185 24.6923 24.0086 23.887 22.7517 22.2927C21.4778 20.699 20.8576 18.6785 20.8576 16.2633ZM6.33542 17.3261C6.48374 18.2018 6.79093 19.0262 7.2816 19.7995C7.74649 20.5322 8.41127 20.9839 9.29649 21.1473C9.57671 21.1985 9.85106 21.2177 10.1348 21.1985C11.0986 21.1305 11.8384 20.6025 12.3431 19.8618C12.8332 19.1181 13.1281 18.2186 13.226 17.1749C13.2993 16.3941 13.2958 15.558 13.1738 14.7858C13.0496 13.9986 12.7828 13.2596 12.407 12.5688C12.0166 11.8647 11.4075 11.4141 10.5792 11.196C10.1184 11.0751 9.74144 11.0036 9.26893 11.1048C8.3292 11.3048 7.60989 11.8176 7.12273 12.6322C6.67016 13.3886 6.39639 14.2497 6.29204 15.2236C6.21876 15.9092 6.22111 16.6482 6.33542 17.3261ZM13.7906 23.2242C12.1579 24.4993 9.96655 24.554 7.97981 24.3975C5.97372 24.2377 4.44892 23.38 3.38139 21.8357C2.21948 20.1153 1.63031 18.1896 1.66256 16.0737C1.66256 13.927 2.23531 12.0164 3.39722 10.3117C4.55914 8.6226 6.2938 7.75451 8.61763 7.75451C12.2781 7.73882 12.5489 8.654 13.5836 10.375V8.22839H17.5782L17.6345 22.3741C17.6398 23.6062 17.8127 27.0698 16.5435 28.7973C15.9069 29.6491 15.1266 30.2642 14.1558 30.6276C13.185 30.991 12.1825 31.1806 11.1636 31.2271C11.0364 31.2271 10.9086 31.2591 10.7814 31.2591C10.6542 31.2591 10.5264 31.2591 10.3998 31.2591L9.19038 31.2911C9.11065 31.2754 9.03151 31.2591 8.96761 31.2591C8.88788 31.2591 8.82457 31.2591 8.74484 31.2591C8.68153 31.2591 8.61763 31.2591 8.55373 31.2591C8.48983 31.2591 8.44235 31.2591 8.41069 31.2591C6.89821 31.2434 5.75271 30.8811 4.49524 30.1857C3.22194 29.5066 2.58529 28.0699 2.53722 26.3494L7.04183 26.3814C7.23295 28.1653 8.23541 28.4019 9.84286 28.4019C13.5086 28.4019 13.7906 25.9058 13.7906 23.2242Z" fill="black"/>
</g>
<defs>
<clipPath id="clip0_207_59">
<rect width="113" height="33" fill="white"/>
</clipPath>
</defs>
</svg>
