<svg width="152" height="24" viewBox="0 0 152 24" fill="none" xmlns="http://www.w3.org/2000/svg">
<g clip-path="url(#clip0_207_7)">
<path d="M27.4028 6.419e-06L25.5803 23.6324H18.1384L18.9628 13.1676H8.2881L7.46363 23.6324H0L1.84421 0H7.35514C7.96265 0 9.19935 0.0648699 9.17766 1.51352L8.63524 8.25946H19.31L19.9609 0L27.4028 6.419e-06Z" fill="#009999"/>
<path d="M122.152 13.4054C125.471 14.8973 128.856 16.3243 128.357 19.5459C127.793 23.0703 122.607 23.7405 118.355 23.7405C118.029 23.7405 117.682 23.7189 117.335 23.7189C111.499 23.5459 108.57 23.0919 108.57 23.0919L108.808 19.2649C108.808 19.2649 112.844 20 116.663 20.1297C118.832 20.1946 120.416 20.0649 120.459 19.3297C120.503 18.6595 119.418 18.3135 117.118 17.4054L115.1 16.6054C112.67 15.5892 108.7 14.1405 108.895 10.8324C109.09 7.58919 113.039 6.57297 115.361 6.24865C116.728 6.05405 118.16 5.98919 120.156 6.01081C124.538 6.07567 128.227 6.85405 128.227 6.85405L127.88 10.4216C127.88 10.4216 123.974 9.57837 120.047 9.57837C117.552 9.6 116.706 9.88108 116.576 10.2919C116.337 11.0486 117.726 11.5892 119.548 12.3243L122.152 13.4054Z" fill="#009999"/>
<path d="M36.5587 0C37.7304 0 38.1426 0.497299 38.0558 1.51352C38.0341 1.94595 37.8388 4.51892 37.8388 4.51892H30.5488L30.8959 0H36.5587ZM37.7087 6.44324L36.3635 23.6324H29.0734L30.3969 6.44324H37.7087Z" fill="#009999"/>
<path d="M99.6741 12.3244C99.826 9.85951 97.9384 9.88113 97.2875 9.85951C95.3782 9.77303 92.9482 10.119 92.9482 10.119L92.1237 23.5892H85.3327L86.3958 6.98384C86.3958 6.98384 91.7766 6.35681 96.0074 6.20546C96.5064 6.18384 97.0054 6.18384 97.4611 6.18384C99.2402 6.18384 100.52 6.29194 100.694 6.31357C103.146 6.5514 106.834 6.94059 106.509 12.1514L105.771 23.6109H98.9581C98.9581 23.6109 99.4789 15.373 99.6741 12.3244Z" fill="#009999"/>
<path d="M151.811 16.4326C153.265 8.15147 145.91 6.52986 144.174 6.2704C143.545 6.18391 142.85 6.11905 142.113 6.11905C134.367 6.05418 130.505 10.919 130.18 14.9407C129.876 18.5947 131.264 24.0001 142.633 24.0001C146.799 24.0001 149.489 23.3731 150.639 23.0488C150.77 22.292 151.008 20.7136 151.204 19.5028C150.639 19.6109 147.233 20.3461 143.523 20.3461H143.176C138.012 20.1515 136.971 17.6434 136.971 16.4758V16.4109L151.811 16.4326ZM137.253 13.1461C137.578 11.3299 138.988 9.49202 141.961 9.47039C146.3 9.51364 146.018 13.1461 146.018 13.1461H137.253Z" fill="#009999"/>
<path d="M83.1196 16.4326C84.595 8.15147 77.2182 6.52986 75.4824 6.2704C74.8532 6.18391 74.1589 6.11905 73.4213 6.11905C65.6756 6.05418 61.7919 10.919 61.4664 14.9407C61.1627 18.5947 62.5513 24.0001 73.9203 24.0001C78.1077 24.0001 80.7764 23.3731 81.9263 23.0488C82.0565 22.292 82.2952 20.7136 82.4904 19.5028C81.9263 19.6109 78.52 20.3461 74.8098 20.3461H74.4627C69.2989 20.1515 68.2575 17.6434 68.2575 16.4758V16.4109L83.1196 16.4326ZM68.5395 13.1461C68.865 11.3299 70.2753 9.49202 73.2477 9.47039C77.587 9.51364 77.305 13.1461 77.305 13.1461H68.5395Z" fill="#009999"/>
<path d="M53.3519 13.4054L50.77 12.3459C48.9475 11.6324 47.5589 11.0919 47.7976 10.3351C47.9278 9.90268 48.7739 9.62159 51.269 9.62159C55.1961 9.62159 59.1015 10.4648 59.1015 10.4648L59.4486 6.89727C59.4486 6.89727 55.7602 6.09727 51.3775 6.05402C49.3814 6.0324 47.9495 6.09727 46.5826 6.29186C44.2393 6.61619 40.3123 7.6324 40.117 10.8756C39.9217 14.2054 43.8922 15.654 46.3222 16.6486L48.34 17.4486C50.6398 18.3567 51.7247 18.7027 51.6813 19.3729C51.6379 20.1297 50.054 20.2378 47.8844 20.1729C44.0658 20.0432 40.0302 19.3081 40.0302 19.3081L39.7915 23.1351C39.7915 23.1351 42.7206 23.6108 48.557 23.7621H49.5767C53.8292 23.7621 59.0147 23.0919 59.5788 19.5675C60.0995 16.3243 56.6715 14.8973 53.3519 13.4054Z" fill="#009999"/>
</g>
<defs>
<clipPath id="clip0_207_7">
<rect width="152" height="24" fill="white"/>
</clipPath>
</defs>
</svg>
