<svg width="131" height="28" viewBox="0 0 131 28" fill="none" xmlns="http://www.w3.org/2000/svg">
<g clip-path="url(#clip0_207_17)">
<path d="M55.0114 6.22119C52.6696 6.22119 50.0063 7.32611 48.379 9.5382L48.3801 9.53371L48.379 9.53483L48.3801 6.56858H42.7947V27.2707H48.379V15.4909C48.379 13.3707 49.9942 11.1171 52.9845 11.1171C55.2955 11.1171 57.6869 12.7532 57.6869 15.4909V27.2707H63.2722V14.4375C63.2722 9.67603 59.9252 6.22119 55.0114 6.22119Z" fill="#E60012"/>
<path d="M102.969 6.56934L97.9193 20.6711L92.8702 6.56934H86.4899L94.8586 27.2648H100.979L109.348 6.56934H102.969Z" fill="#E60012"/>
<path d="M26.1205 12.806C27.0718 11.5061 28.5868 10.743 30.4166 10.743C32.4292 10.743 33.9563 11.9129 34.7457 13.6398L24.9876 17.7603C24.7212 15.6457 25.2529 13.9916 26.1205 12.806ZM36.8509 20.9058C34.5002 22.6764 33.157 23.0988 31.0134 23.0988C29.0844 23.0988 27.5738 22.4892 26.5092 21.4202L40.788 15.3913C40.4764 13.1445 39.6386 11.1375 38.3493 9.61118C36.4732 7.39349 33.6965 6.22021 30.3153 6.22021C24.174 6.22021 19.5432 10.8315 19.5432 16.922C19.5432 23.1706 24.185 27.6227 30.9308 27.6227C34.7105 27.6227 38.575 25.7995 40.3829 23.6692L36.8509 20.9058Z" fill="#E60012"/>
<path d="M19.0108 22.0509H6.31631V0.377197H0.654968V27.2707H19.0108V22.0509Z" fill="#E60012"/>
<path d="M119.377 11.0915C116.258 11.0915 113.993 13.4975 113.993 16.9198C113.993 20.1875 116.392 22.7481 119.452 22.7481C122.572 22.7481 124.836 20.276 124.836 16.9198C124.836 13.6521 122.438 11.0915 119.377 11.0915ZM119.377 27.6194C113.268 27.6194 108.482 22.9879 108.482 16.9198C108.482 10.9201 113.301 6.22021 119.452 6.22021C125.56 6.22021 130.345 10.8517 130.345 16.9198C130.345 22.9184 125.527 27.6194 119.377 27.6194Z" fill="#E60012"/>
<path d="M76.3751 11.0915C73.256 11.0915 70.9923 13.4975 70.9923 16.9198C70.9923 20.1875 73.3903 22.7481 76.4511 22.7481C79.5702 22.7481 81.8339 20.276 81.8339 16.9198C81.8339 13.6521 79.4359 11.0915 76.3751 11.0915ZM76.3751 27.6194C70.2668 27.6194 65.4818 22.9879 65.4818 16.9198C65.4818 10.9201 70.2998 6.22021 76.4511 6.22021C82.5583 6.22021 87.3444 10.8517 87.3444 16.9198C87.3444 22.9184 82.5253 27.6194 76.3751 27.6194Z" fill="#E60012"/>
</g>
<defs>
<clipPath id="clip0_207_17">
<rect width="131" height="28" fill="white"/>
</clipPath>
</defs>
</svg>
