<svg width="108" height="50" viewBox="0 0 108 50" fill="none" xmlns="http://www.w3.org/2000/svg">
<path d="M94.2768 28.4454H99.8696V33.7005C98.8432 34.0959 96.8287 34.4914 94.9189 34.4914C88.7326 34.4914 86.6754 31.3194 86.6754 24.8779C86.6754 18.7305 88.634 15.1129 94.8143 15.1129C98.2586 15.1129 100.213 16.2045 101.832 18.2861L106.106 14.3205C103.496 10.5619 98.9419 9.42285 94.6656 9.42285C85.0513 9.41899 79.996 14.7161 79.996 24.8267C79.996 34.887 84.5638 40.3407 94.6141 40.3407C99.2291 40.3407 103.74 39.1541 106.196 37.4152V22.8447H94.277L94.2768 28.4454ZM64.9404 34.0462H79.1732V39.8945H58.0718V9.86362H64.9409L64.9404 34.0462Z" fill="#6B6C6B"/>
<path d="M41.0472 41.4236C50.0258 32.3543 50.0252 17.649 41.0463 8.58174C32.0674 -0.487165 17.5095 -0.488256 8.53291 8.58085C-0.445672 17.6499 -0.445132 32.3554 8.53379 41.4227C17.5126 50.4923 32.0706 50.4925 41.0472 41.4236Z" fill="#A50034"/>
<path d="M17.8148 20.4728C18.339 20.4703 18.8507 20.3108 19.2854 20.0147C19.72 19.7187 20.0581 19.2992 20.2569 18.8093C20.4558 18.3193 20.5065 17.7807 20.4027 17.2617C20.2987 16.7426 20.045 16.2663 19.6734 15.8928C19.3018 15.5193 18.8289 15.2653 18.3146 15.1629C17.8003 15.0606 17.2674 15.1145 16.7834 15.3176C16.2992 15.521 15.8856 15.8644 15.5946 16.305C15.3036 16.7454 15.1484 17.2631 15.1484 17.7926C15.1492 18.1454 15.2188 18.4947 15.3533 18.8203C15.4879 19.146 15.6844 19.4417 15.932 19.6905C16.1797 19.9394 16.4734 20.1366 16.7964 20.2708C17.1195 20.4051 17.4655 20.4737 17.8148 20.4728ZM42.1328 25.7382H30.4409V23.9889H43.8464C43.8646 24.3277 43.8738 24.6664 43.8738 25.0093C43.8738 35.5431 35.3745 44.082 24.8928 44.082C14.4107 44.082 5.90997 35.5483 5.90997 25.0093C5.90997 14.4711 14.408 5.93652 24.891 5.93652C25.1677 5.93652 25.443 5.94218 25.7171 5.95363V7.68992C25.443 7.67757 25.1686 7.67148 24.8935 7.67148C15.3659 7.67148 7.63939 15.434 7.63939 25.0075C7.63939 34.5811 15.3648 42.3451 24.8935 42.3451C34.1602 42.3451 41.7307 35.0006 42.1314 25.7869L42.1328 25.7382ZM30.4142 33.0264H25.7155V15.195H23.9783V34.7877H25.7195V34.776H30.4182L30.4142 33.0264Z" fill="white"/>
</svg>
