<svg width="117" height="35" viewBox="0 0 117 35" fill="none" xmlns="http://www.w3.org/2000/svg">
<g clip-path="url(#clip0_207_33)">
<path d="M0.0584717 24.7336V0.568848H4.37588V24.7336H0.0584717Z" fill="black"/>
<path d="M15.4275 7.20288C9.89204 7.20288 6.0614 11.3874 6.0614 16.177C6.0614 21.5225 10.2287 25.2049 15.4705 25.2049C20.4454 25.2049 24.7624 21.5902 24.7624 16.1654C24.7624 11.6037 21.1851 7.20288 15.4275 7.20288ZM15.3767 11.2978C18.2736 11.2978 20.4058 13.5148 20.4058 16.1924C20.4058 19.0313 18.0549 21.1024 15.4549 21.1024C12.3827 21.1024 10.4492 18.7083 10.4492 16.2001C10.4492 13.4508 12.6321 11.2978 15.3767 11.2978Z" fill="black"/>
<path d="M35.6099 7.20288C30.0744 7.20288 26.2438 11.3874 26.2438 16.177C26.2438 21.5225 30.4111 25.2049 35.6529 25.2049C40.6277 25.2049 44.9447 21.5902 44.9447 16.1654C44.9447 12.9709 43.5377 11.5535 43.5377 11.5535L44.7343 11.1501V7.70498H38.6023C38.6023 7.70498 37.273 7.20288 35.6099 7.20288ZM35.5591 11.2978C38.4559 11.2978 40.5882 13.5148 40.5882 16.1924C40.5882 19.0313 38.2373 21.1024 35.6373 21.1024C32.565 21.1024 30.6316 18.7083 30.6316 16.2001C30.6316 13.4508 32.8145 11.2978 35.5591 11.2978Z" fill="black"/>
<path d="M40.5577 25.9146C40.5577 28.7535 38.2068 30.8399 35.6068 30.8399C32.5345 30.8399 30.5932 28.4228 30.5932 25.9146H26.2133C26.2133 31.26 30.3805 34.9425 35.6224 34.9425C40.5972 34.9425 44.9142 31.3393 44.9142 25.9146H40.5577Z" fill="black"/>
<path d="M46.674 24.7336V7.70508H50.9914V24.7336H46.674Z" fill="black"/>
<path d="M55.1837 24.7335V11.5192H52.8685V7.70495H55.1837V2.47583H59.5011V7.70495H61.8788V11.5192H59.5011V24.7335H55.1837Z" fill="black"/>
<path d="M51.6827 2.86853C51.6827 4.42095 50.4027 5.67944 48.8237 5.67944C47.2447 5.67944 45.9647 4.42095 45.9647 2.86853C45.9647 1.3161 47.2447 0.0576172 48.8237 0.0576172C50.4027 0.0576172 51.6827 1.3161 51.6827 2.86853Z" fill="black"/>
<path d="M71.5852 7.19141C66.0235 7.19141 62.438 11.3781 62.438 16.3309C62.438 21.449 66.0354 25.2165 71.6751 25.2165C76.936 25.2165 79.5239 21.9868 79.5239 21.9868L76.6378 19.1454C76.6378 19.1454 74.4587 21.4562 71.7299 21.4562C69.4551 21.4562 67.6364 20.2079 67.0018 17.9188H80.4546V16.7499C80.4546 12.086 77.709 7.19141 71.5852 7.19141ZM71.4483 10.9287C73.4372 10.9287 75.4712 11.9748 75.9261 14.4737H66.8845C67.2426 12.7172 68.8056 10.9287 71.4483 10.9287Z" fill="black"/>
<path d="M91.2538 25.2185C85.6764 25.2185 81.876 21.042 81.876 16.1175C81.876 11.0355 86.1711 7.18799 91.2359 7.18799C96.1321 7.18799 98.6383 10.5863 98.6383 10.5863L95.6265 13.534C95.6265 13.534 93.8819 11.3178 91.2154 11.3178C88.26 11.3178 86.2393 13.5406 86.2393 16.1827C86.2393 18.9725 88.3889 21.1129 91.1822 21.1129C93.8916 21.1129 95.6223 18.9003 95.6223 18.9003L98.6642 21.8464C98.6642 21.8464 96.1824 25.2185 91.2538 25.2185Z" fill="black"/>
<path d="M100.235 24.7459V0.507324H104.552V9.41268C104.552 9.41268 106.206 7.18822 109.802 7.18822C114.322 7.18822 116.941 10.4923 116.941 14.7183V24.7459H112.624V15.3598C112.624 12.5208 110.826 11.3429 108.835 11.3429C106.566 11.3429 104.552 12.6126 104.552 15.5795V24.7459H100.235Z" fill="black"/>
</g>
<defs>
<clipPath id="clip0_207_33">
<rect width="117" height="35" fill="white"/>
</clipPath>
</defs>
</svg>
