<svg width="100" height="39" viewBox="0 0 100 39" fill="none" xmlns="http://www.w3.org/2000/svg">
<g clip-path="url(#clip0_207_46)">
<path d="M0 38.3H100V0H0V38.3Z" fill="#8C0014"/>
<path d="M79.617 21.127V22.105C79.617 22.927 80.359 23.682 81.524 23.682C83.195 23.682 83.866 22.419 84.003 21.89C85.809 21.89 87.23 21.889 87.741 21.889C87.184 23.621 84.887 25.678 80.663 25.678C75.158 25.678 73.432 22.696 73.432 20.417C73.432 17.986 75.426 15.093 80.654 15.093C85.174 15.093 87.876 17.713 87.876 20.418C87.876 20.87 87.838 21.127 87.838 21.127H79.617ZM79.617 19.483H81.711V18.142C81.711 17.737 81.388 17.096 80.657 17.096C79.979 17.096 79.617 17.71 79.617 18.136V19.483ZM64.278 23.111H62.79V25.209H72.845V23.111H71.337V12.443H62.79V14.542H64.278V23.111ZM53.919 21.127V22.105C53.919 22.927 54.663 23.682 55.828 23.682C57.498 23.682 58.17 22.419 58.306 21.89C60.113 21.89 61.534 21.889 62.045 21.889C61.488 23.621 59.19 25.678 54.967 25.678C49.461 25.678 47.736 22.696 47.736 20.417C47.736 17.986 49.728 15.093 54.959 15.093C59.477 15.093 62.181 17.713 62.181 20.418C62.181 20.87 62.142 21.127 62.142 21.127H53.919ZM53.919 19.483H56.014V18.142C56.014 17.737 55.691 17.096 54.96 17.096C54.283 17.096 53.919 17.71 53.919 18.136V19.483ZM44.435 13.76L43.462 11.908L40.39 13.492L41.363 15.362L44.435 13.76ZM45.656 15.611H37.396V17.71H38.902V23.111H37.396V25.209H47.163V23.111H45.656V15.611ZM28.524 12.443H36.041V14.543H34.534V23.111H36.041V25.209H26.271V23.111H27.779V17.558L22.228 25.209L16.656 17.558V23.111H18.164V25.209H12.763V23.111H14.252V14.543H12.763V12.443H21.292L24.917 17.424L28.524 12.443Z" fill="white"/>
</g>
<defs>
<clipPath id="clip0_207_46">
<rect width="100" height="38.3" fill="white"/>
</clipPath>
</defs>
</svg>
