<svg width="137" height="25" viewBox="0 0 137 25" fill="none" xmlns="http://www.w3.org/2000/svg">
<g clip-path="url(#clip0_207_50)">
<mask id="mask0_207_50" style="mask-type:luminance" maskUnits="userSpaceOnUse" x="-78" y="-76" width="290" height="204">
<path d="M-77.2009 -75.9308H211.285V127.073H-77.2009V-75.9308Z" fill="white"/>
</mask>
<g mask="url(#mask0_207_50)">
<path d="M46.4735 0.499431H39.1131V10.0379H31.4511V0.499431H24.0907V24.4972H31.4511V15.0577H39.1131V24.4972H46.4735V0.499431ZM72.0774 19.6752V0.499431H64.717V24.4972H78.0261L79.1329 19.6752H72.0774ZM59.2755 0.499431H51.915V24.4972H59.2755V0.499431ZM89.1147 0.499431H81.7577V24.4972H89.1147V0.499431ZM125.403 6.6242C125.403 5.31809 126.715 4.71448 128.83 4.71448C131.149 4.71448 133.671 5.21919 135.385 5.92511L134.782 0.700634C132.863 0.298226 131.149 -0.00187311 128.028 -0.00187311C122.079 -0.00187311 118.046 2.33414 118.046 7.22782C118.046 15.6613 129.542 13.9562 129.542 17.8712C129.542 19.3751 128.429 20.1765 125.708 20.1765C123.292 20.1765 119.557 19.3751 117.34 18.2702L118.149 23.7947C120.366 24.5995 123.388 24.9985 125.811 24.9985C131.958 24.9985 136.999 22.9899 136.999 16.964C136.999 8.93634 125.403 10.4403 125.403 6.6242ZM104.641 18.7749C111.491 18.7749 115.829 15.2589 115.829 9.13414C115.829 2.40916 111.193 -0.00187311 103.63 -0.00187311C100.707 -0.00187311 97.1776 0.199331 94.659 0.499431V24.4972H102.019V18.7749H104.641ZM108.571 9.23644C108.571 12.3466 107.06 14.4575 103.226 14.4575H102.019V4.54056C102.448 4.51669 102.849 4.51668 103.226 4.51668C106.854 4.51668 108.571 6.2218 108.571 9.23644ZM9.97974 18.7749C16.833 18.7749 21.1677 15.2589 21.1677 9.13414C21.1677 2.40916 16.5315 -0.00187311 8.97231 -0.00187311C6.04595 -0.00187311 2.51994 0.199331 -0.0020752 0.499431V24.4972H7.35836V18.7749H9.97974ZM13.9135 9.23644C13.9135 12.3466 12.399 14.4575 8.56797 14.4575H7.35836V4.54056C7.78669 4.51669 8.19104 4.51668 8.56797 4.51668C12.1968 4.51668 13.9135 6.2218 13.9135 9.23644Z" fill="#0B5ED7"/>
</g>
</g>
<defs>
<clipPath id="clip0_207_50">
<rect width="137" height="25" fill="white"/>
</clipPath>
</defs>
</svg>
