<svg width="46" height="7" viewBox="0 0 46 7" fill="black" xmlns="http://www.w3.org/2000/svg"><path d="M37.9818 0.21965L38.0698 5.382H38.0257L36.532 0.21965H34.0716V6.72194H35.6971L35.6094 1.38403H35.6535L37.2569 6.72194H39.6075V0.21965H37.9818ZM7.02957 0.21965L5.79945 6.78807H7.57888L8.47952 0.812858H8.52342L9.40221 6.78788H11.1596L9.95133 0.21965H7.02957ZM16.9589 0.21965L16.1462 5.22828H16.1021L15.2894 0.21965H12.6094L12.4775 6.78807H14.1251L14.1691 0.878601H14.191L15.2893 6.78788H16.9589L18.0573 0.878791H18.1014L18.1451 6.78788H19.7926L19.6389 0.21965H16.9589ZM3.03159 4.92066C3.09733 5.07437 3.07548 5.29422 3.05344 5.40404C3.00955 5.62369 2.85583 5.84334 2.41634 5.84334C1.99908 5.84334 1.75739 5.60184 1.75739 5.25013V4.61323H0V5.11846C0 6.59027 1.16418 7.02957 2.39449 7.02957C3.58072 7.02957 4.56914 6.61212 4.72305 5.53572C4.81083 4.96455 4.7449 4.59118 4.72305 4.45932C4.41542 3.07548 1.9113 2.68007 1.73535 1.91111C1.7135 1.77924 1.7135 1.64757 1.73535 1.55959C1.77943 1.33994 1.93315 1.12029 2.32856 1.12029C2.72397 1.12029 2.94381 1.36179 2.94381 1.7135V2.10891H4.59118V1.64757C4.59118 0.21965 3.29513 0 2.37245 0C1.20827 0 0.241692 0.395408 0.0659333 1.44977C0.02185 1.73535 0 1.99908 0.0877833 2.32856C0.351517 3.69054 2.70231 4.08595 3.03159 4.92066ZM24.4061 4.92066C24.4718 5.07457 24.4498 5.27217 24.4279 5.40404C24.3838 5.62369 24.2301 5.84334 23.7908 5.84334C23.3734 5.84334 23.1319 5.60184 23.1319 5.25013V4.61323H21.3743V5.11846C21.3743 6.56823 22.5166 7.00772 23.7469 7.00772C24.9331 7.00772 25.8997 6.61231 26.0534 5.51387C26.1414 4.9427 26.0755 4.59118 26.0534 4.43747C25.7899 3.07548 23.3074 2.65803 23.1319 1.9113C23.1098 1.77943 23.1098 1.64757 23.1319 1.55959C23.1758 1.33994 23.3295 1.12029 23.7249 1.12029C24.0982 1.12029 24.3401 1.36179 24.3401 1.7135V2.10891H25.9655V1.64757C25.9655 0.21965 24.6915 0 23.769 0C22.6046 0 21.6599 0.373367 21.4843 1.44977C21.4402 1.73535 21.4402 1.99908 21.5061 2.32856C21.7699 3.69054 24.0764 4.06391 24.4061 4.92066ZM29.9418 5.79945C30.4031 5.79945 30.5348 5.49183 30.5787 5.31607C30.6007 5.25033 30.6007 5.14031 30.6007 5.07457V0.21965H32.2701V4.9427C32.2701 5.07457 32.2701 5.31607 32.2483 5.382C32.1385 6.61231 31.1719 7.00772 29.9636 7.00772C28.7556 7.00772 27.789 6.61231 27.679 5.382C27.679 5.31607 27.6571 5.07457 27.6571 4.9427V0.21965H29.3265V5.07457C29.3265 5.16235 29.3265 5.25013 29.3486 5.31607C29.3486 5.49183 29.4804 5.79945 29.9418 5.79945ZM43.6494 5.73352C44.1328 5.73352 44.2865 5.42589 44.3304 5.25013C44.3524 5.18439 44.3524 5.07438 44.3524 5.00863V4.06391H43.6714V3.09733H46V4.85492C46 4.98659 46 5.07438 45.978 5.29422C45.8681 6.50229 44.8356 6.91974 43.6714 6.91974C42.5071 6.91974 41.4747 6.50229 41.3649 5.29422C41.3429 5.07438 41.3429 4.98659 41.3429 4.85472V2.08706C41.3429 1.97704 41.3649 1.75739 41.3649 1.64757C41.5186 0.417258 42.5073 0.0218504 43.6714 0.0218504C44.8356 0.0218504 45.8463 0.417258 45.978 1.64757C46 1.84518 46 2.08687 46 2.08687V2.30652H44.3524V1.93315C44.3524 1.93315 44.3524 1.77924 44.3304 1.69146C44.3085 1.53774 44.1767 1.20827 43.6714 1.20827C43.1883 1.20827 43.0562 1.5157 43.0125 1.69146C42.9904 1.77924 42.9904 1.88926 42.9904 1.99908V5.00863C42.9904 5.09642 42.9904 5.1842 43.0125 5.25013C43.0125 5.42589 43.1882 5.73352 43.6494 5.73352Z"/></svg>
